<svg width="19" height="19" viewBox="0 0 19 19" fill="none" xmlns="http://www.w3.org/2000/svg">
<path d="M2.0464 4.30656C2.0464 3.70682 2.28458 3.13162 2.70857 2.70744C3.13256 2.28326 3.70765 2.04483 4.3074 2.04456H5.3364C5.93324 2.0441 6.50576 1.80798 6.9294 1.38756L7.6484 0.667562C7.85787 0.456767 8.10683 0.289314 8.38105 0.174772C8.65526 0.0602303 8.94936 0.000844753 9.24653 8.94713e-06C9.54371 -0.000826858 9.83814 0.0569034 10.113 0.169901C10.3878 0.282898 10.6377 0.448948 10.8484 0.658562L10.8574 0.666562L11.5774 1.38656C12.0008 1.80735 12.5735 2.04353 13.1704 2.04356H14.2014C14.4984 2.04356 14.7926 2.10207 15.067 2.21575C15.3415 2.32942 15.5908 2.49604 15.8009 2.70609C16.0109 2.91613 16.1775 3.16549 16.2912 3.43993C16.4049 3.71437 16.4634 4.00851 16.4634 4.30556V5.33356C16.4634 5.93079 16.6996 6.5038 17.1204 6.92756L17.8404 7.64756C18.0513 7.85697 18.2188 8.10587 18.3334 8.38005C18.448 8.65423 18.5075 8.94831 18.5085 9.24549C18.5094 9.54267 18.4517 9.83711 18.3388 10.112C18.2259 10.3869 18.0599 10.6368 17.8504 10.8476L17.8414 10.8566L17.1214 11.5766C16.7005 11.9995 16.4643 12.5719 16.4644 13.1686V14.2006C16.4636 14.8 16.2248 15.3747 15.8004 15.7981C15.376 16.2215 14.8009 16.4591 14.2014 16.4586H13.1684C12.5713 16.4587 11.9986 16.6953 11.5754 17.1166L10.8554 17.8356C10.6462 18.0467 10.3974 18.2145 10.1233 18.3293C9.84918 18.4442 9.5551 18.5039 9.25789 18.505C8.96067 18.5061 8.66616 18.4487 8.39119 18.3358C8.11622 18.223 7.86618 18.0571 7.6554 17.8476L7.6464 17.8386L6.9274 17.1196C6.50398 16.6987 5.93141 16.4622 5.3344 16.4616H4.3074C3.70774 16.4616 3.13265 16.2233 2.70863 15.7993C2.28461 15.3753 2.0464 14.8002 2.0464 14.2006V13.1666C2.04617 12.5698 1.80958 11.9974 1.3884 11.5746L0.669399 10.8546C0.458234 10.6454 0.290414 10.3965 0.17555 10.1224C0.060686 9.84822 0.00103515 9.55409 1.33536e-05 9.25684C-0.00100844 8.95959 0.0566189 8.66506 0.169595 8.39012C0.282571 8.11517 0.448677 7.86522 0.658399 7.65456L0.667399 7.64556L1.3864 6.92556C1.8077 6.50202 2.04426 5.92896 2.0444 5.33156V4.30656" fill="#072040"/>
<path d="M6.6834 11.8226L11.8234 6.68256" stroke="#C9C9C9" stroke-width="1.5" stroke-miterlimit="10" stroke-linecap="round" stroke-linejoin="round"/>
</svg>
