<svg width="23" height="23" viewBox="0 0 23 23" fill="none" xmlns="http://www.w3.org/2000/svg">
<path d="M22.143 10.1717L11.737 0.196693C11.6065 0.0705252 11.432 0 11.2505 0C11.069 0 10.8945 0.0705252 10.764 0.196693L0.347 10.1817C0.126032 10.4032 0.00134187 10.7028 0 11.0157C0.000528803 11.3264 0.124177 11.6242 0.343855 11.8438C0.563533 12.0635 0.861329 12.1872 1.172 12.1877H2.813V20.6257C2.81287 20.872 2.86127 21.1159 2.95544 21.3435C3.04961 21.5711 3.1877 21.7779 3.36182 21.9522C3.53594 22.1264 3.74269 22.2646 3.97024 22.3589C4.19779 22.4532 4.44169 22.5017 4.688 22.5017H17.813C18.3103 22.5017 18.7872 22.3041 19.1388 21.9525C19.4905 21.6009 19.688 21.124 19.688 20.6267V12.1877H21.329C21.6395 12.1869 21.937 12.0631 22.1565 11.8435C22.376 11.6238 22.4995 11.3262 22.5 11.0157C22.4973 10.6982 22.369 10.3947 22.143 10.1717Z" fill="#072040"/>
</svg>
