<svg width="20" height="22" viewBox="0 0 20 22" fill="none" xmlns="http://www.w3.org/2000/svg">
<path d="M9.66022 1.25C7.15343 1.25 5.11401 3.28943 5.11401 5.79622C5.11401 8.30301 7.15343 10.3424 9.66022 10.3424C12.167 10.3424 14.2065 8.30301 14.2065 5.79622C14.2065 3.28943 12.167 1.25 9.66022 1.25ZM9.66022 4.76837e-06C12.8563 4.76837e-06 15.4565 2.60018 15.4565 5.79622C15.4565 8.99226 12.8563 11.5924 9.66022 11.5924C6.46418 11.5924 3.86401 8.99226 3.86401 5.79622C3.86401 2.60018 6.46418 4.76837e-06 9.66022 4.76837e-06Z" fill="#072040"/>
<path d="M8.37231 14.13C6.47681 14.13 4.6894 14.8849 3.33934 16.2557C2.13551 17.4781 1.41491 19.0494 1.27507 20.7322H18.0457C17.9058 19.0494 17.1852 17.4781 15.9814 16.2557C14.6313 14.8849 12.8439 14.13 10.9484 14.13H8.37231ZM8.37199 12.88H10.948C13.181 12.88 15.2851 13.7673 16.872 15.3786C18.4511 16.982 19.321 19.0983 19.321 21.338C19.321 21.6936 19.0327 21.982 18.677 21.982H0.643991C0.28832 21.982 -7.76362e-06 21.6936 -7.76362e-06 21.338C-7.76362e-06 19.0983 0.86964 16.982 2.44875 15.3786C4.03562 13.7673 6.13904 12.88 8.37199 12.88Z" fill="#072040"/>
<path d="M8.37231 14.13C6.47681 14.13 4.6894 14.8849 3.33934 16.2557C2.13551 17.4781 1.41491 19.0494 1.27507 20.7322H18.0457C17.9058 19.0494 17.1852 17.4781 15.9814 16.2557C14.6313 14.8849 12.8439 14.13 10.9484 14.13H8.37231Z" fill="#072040"/>
<path d="M9.66022 1.25C7.15343 1.25 5.11401 3.28943 5.11401 5.79622C5.11401 8.30301 7.15343 10.3424 9.66022 10.3424C12.167 10.3424 14.2065 8.30301 14.2065 5.79622C14.2065 3.28943 12.167 1.25 9.66022 1.25Z" fill="#072040"/>
</svg>
