<svg width="21" height="21" viewBox="0 0 21 21" fill="none" xmlns="http://www.w3.org/2000/svg">
<path fill-rule="evenodd" clip-rule="evenodd" d="M9 1C4.58172 1 1 4.58172 1 9C1 13.4183 4.58172 17 9 17C11.0292 17 12.882 16.2445 14.2923 14.9994C14.5424 14.7786 14.7786 14.5424 14.9994 14.2923C16.2445 12.882 17 11.0292 17 9C17 4.58172 13.4183 1 9 1ZM9 18C11.3054 18 13.4083 17.1332 15.0006 15.7077L20.1464 20.8536C20.3417 21.0488 20.6583 21.0488 20.8536 20.8536C21.0488 20.6583 21.0488 20.3417 20.8536 20.1464L15.7077 15.0006C17.1332 13.4083 18 11.3054 18 9C18 4.02944 13.9706 0 9 0C4.02944 0 0 4.02944 0 9C0 13.9706 4.02944 18 9 18Z" fill="white"/>
</svg>
