<svg width="22" height="22" viewBox="0 0 22 22" fill="none" xmlns="http://www.w3.org/2000/svg">
<path d="M16.0918 6.29653C16.258 6.28031 16.4135 6.20697 16.5317 6.089C16.599 6.02223 16.6524 5.94177 16.6888 5.85423C16.7252 5.76669 16.7438 5.6728 16.7437 5.578C16.7437 5.41099 16.6858 5.24914 16.5799 5.12002C16.474 4.9909 16.3266 4.90249 16.1628 4.86985C15.999 4.83722 15.829 4.86237 15.6816 4.94103C15.5343 5.0197 15.4188 5.147 15.3548 5.30126C15.2908 5.45552 15.2823 5.6272 15.3306 5.78705C15.379 5.9469 15.4813 6.08504 15.6201 6.17793C15.7589 6.27083 15.9256 6.31274 16.0918 6.29653Z" fill="#072040"/>
<path fill-rule="evenodd" clip-rule="evenodd" d="M11.0727 2.15107e-07H19.2727C19.89 -0.000264939 20.4821 0.244614 20.9188 0.680795C21.3555 1.11698 21.6012 1.70875 21.6017 2.326V10.526C21.6017 10.6936 21.5351 10.8544 21.4167 10.973L11.4677 20.922C11.2522 21.1382 10.9959 21.3096 10.7137 21.4262C10.4315 21.5427 10.129 21.6021 9.82371 21.601C9.5184 21.6021 9.2159 21.5427 8.93371 21.4262C8.65152 21.3096 8.39524 21.1382 8.17971 20.922L0.679714 13.422C0.244439 12.9856 0 12.3944 0 11.778C0 11.1616 0.244439 10.5704 0.679714 10.134L10.6257 0.185C10.7443 0.0665836 10.9051 5.25574e-05 11.0727 2.15107e-07ZM14.7597 4.04058C15.1151 3.74871 15.5608 3.58912 16.0207 3.589C16.2819 3.58821 16.5407 3.63924 16.782 3.73914C17.0233 3.83905 17.2425 3.98583 17.4267 4.171C17.752 4.49615 17.9544 4.92403 17.9996 5.38174C18.0448 5.83944 17.9299 6.29865 17.6744 6.68112C17.419 7.06359 17.0388 7.34566 16.5987 7.47926C16.1586 7.61287 15.6858 7.58975 15.2609 7.41384C14.8359 7.23794 14.4851 6.92013 14.2682 6.51456C14.0513 6.10899 13.9817 5.64077 14.0713 5.18965C14.161 4.73854 14.4042 4.33245 14.7597 4.04058Z" fill="#072040"/>
</svg>
