<svg width="37" height="40" viewBox="0 0 37 40" fill="none" xmlns="http://www.w3.org/2000/svg">
<path d="M25.859 17.229C25.859 16.8205 25.6968 16.4288 25.408 16.14C25.1191 15.8512 24.7274 15.689 24.319 15.689H8.45901C8.05057 15.689 7.65887 15.8512 7.37006 16.14C7.08126 16.4288 6.91901 16.8205 6.91901 17.229C6.91901 17.6374 7.08126 18.0291 7.37006 18.3179C7.65887 18.6067 8.05057 18.769 8.45901 18.769H24.319C24.7274 18.769 25.1191 18.6067 25.408 18.3179C25.6968 18.0291 25.859 17.6374 25.859 17.229Z" fill="#FFC709"/>
<path d="M8.45901 21.848C8.05057 21.848 7.65887 22.0102 7.37006 22.299C7.08126 22.5878 6.91901 22.9795 6.91901 23.388C6.91901 23.7964 7.08126 24.1881 7.37006 24.4769C7.65887 24.7657 8.05057 24.9279 8.45901 24.9279H18.091C18.4994 24.9279 18.8911 24.7657 19.18 24.4769C19.4688 24.1881 19.631 23.7964 19.631 23.388C19.631 22.9795 19.4688 22.5878 19.18 22.299C18.8911 22.0102 18.4994 21.848 18.091 21.848H8.45901Z" fill="#FFC709"/>
<path d="M12.076 36.63H6.926C6.10938 36.6292 5.32643 36.3044 4.74899 35.727C4.17155 35.1495 3.84679 34.3666 3.846 33.55V6.44995C3.84679 5.63333 4.17155 4.85038 4.74899 4.27294C5.32643 3.6955 6.10938 3.37075 6.926 3.36995H25.857C26.6736 3.37075 27.4566 3.6955 28.034 4.27294C28.6115 4.85038 28.9362 5.63333 28.937 6.44995V15.92C28.937 16.3284 29.0992 16.7201 29.3881 17.0089C29.6769 17.2977 30.0686 17.46 30.477 17.46C30.8854 17.46 31.2771 17.2977 31.5659 17.0089C31.8548 16.7201 32.017 16.3284 32.017 15.92V6.44995C32.0151 4.81688 31.3655 3.25124 30.2107 2.09658C29.0558 0.941914 27.4901 0.292543 25.857 0.290955H6.926C5.2931 0.292807 3.72761 0.942295 2.57298 2.09693C1.41834 3.25157 0.768851 4.81705 0.766998 6.44995V33.55C0.768851 35.1829 1.41834 36.7483 2.57298 37.903C3.72761 39.0576 5.2931 39.7071 6.926 39.709H12.076C12.4844 39.709 12.8761 39.5467 13.1649 39.2579C13.4537 38.9691 13.616 38.5774 13.616 38.169C13.616 37.7605 13.4537 37.3688 13.1649 37.08C12.8761 36.7912 12.4844 36.63 12.076 36.63Z" fill="#FFC709"/>
<path d="M34.743 22.585C33.8761 21.72 32.7016 21.2343 31.477 21.2343C30.2524 21.2343 29.0779 21.72 28.211 22.585L19.757 31.02C19.5774 31.1989 19.4449 31.4194 19.371 31.662L17.53 37.723C17.4501 37.9867 17.4424 38.2671 17.5077 38.5348C17.5731 38.8025 17.7091 39.0478 17.9015 39.2451C18.094 39.4423 18.3358 39.5843 18.6019 39.6562C18.8679 39.7281 19.1484 39.7274 19.414 39.654L25.629 37.9319C25.8848 37.8612 26.1181 37.7255 26.306 37.538L34.742 29.118C35.6071 28.251 36.0931 27.0764 36.0933 25.8517C36.0934 24.6269 35.6078 23.4521 34.743 22.585ZM24.418 35.072L21.291 35.938L22.206 32.925L27.906 27.2339L30.084 29.412L24.418 35.072ZM32.566 26.939L32.266 27.239L30.088 25.061L30.388 24.761C30.6767 24.472 31.0683 24.3096 31.4768 24.3094C31.8852 24.3092 32.2771 24.4713 32.566 24.7599C32.855 25.0486 33.0174 25.4403 33.0176 25.8488C33.0178 26.2572 32.8557 26.649 32.567 26.938L32.566 26.939Z" fill="#FFC709"/>
<path d="M24.318 9.52997H8.45901C8.05057 9.52997 7.65887 9.69222 7.37006 9.98103C7.08126 10.2698 6.91901 10.6615 6.91901 11.07C6.91901 11.4784 7.08126 11.8701 7.37006 12.1589C7.65887 12.4477 8.05057 12.61 8.45901 12.61H24.319C24.7274 12.61 25.1191 12.4477 25.408 12.1589C25.6968 11.8701 25.859 11.4784 25.859 11.07C25.859 10.6615 25.6968 10.2698 25.408 9.98103C25.1191 9.69222 24.7264 9.52997 24.318 9.52997Z" fill="#FFC709"/>
</svg>
